<?xml version="1.0" encoding="utf-8"?>
<!-- License: MIT. Made by joypixels: https://github.com/joypixels/emojione -->
<svg width="800px" height="800px" viewBox="0 0 64 64" xmlns="http://www.w3.org/2000/svg" xmlns:xlink="http://www.w3.org/1999/xlink" aria-hidden="true" role="img" class="iconify iconify--emojione-monotone" preserveAspectRatio="xMidYMid meet"><path d="M55.815 13.772c.894-2.709 1.296-6.468.743-11.632c0 0-2.309 3.477-6.074 6.239A29.855 29.855 0 0 0 32 2a29.853 29.853 0 0 0-18.485 6.38C9.749 5.617 7.442 2.14 7.442 2.14c-.553 5.165-.15 8.923.742 11.632A29.857 29.857 0 0 0 2 32c0 16.566 13.432 30 30 30s30-13.434 30-30a29.855 29.855 0 0 0-6.185-18.228m-1.569-5.249c-.297 4.344-1.564 6.527-2.465 7.549c-1.223 1.387-2.469 1.559-2.988 1.568c-1.053 0-2.164-.978-2.426-2.134c-.336-1.481.934-2.431 2.057-2.968c2.271-1.083 4.238-2.564 5.822-4.015M15.578 12.54c1.123.536 2.391 1.485 2.055 2.968c-.262 1.155-1.371 2.132-2.465 2.132c-.48-.009-1.727-.181-2.949-1.567c-.898-1.021-2.168-3.203-2.465-7.548c1.586 1.45 3.553 2.93 5.824 4.015M32 59.5C16.836 59.5 4.5 47.164 4.5 32c0-5.788 1.818-11.149 4.885-15.584c1.702 2.771 4.045 3.69 5.734 3.723l.09.002c4.422 0 7.854-6.799 1.445-9.857a16.884 16.884 0 0 1-.867-.45C20.338 6.495 25.935 4.5 32 4.5s11.662 1.994 16.213 5.333c-.284.156-.571.309-.867.45c-6.41 3.059-2.977 9.857 1.447 9.857l.088-.002c1.688-.033 4.031-.952 5.734-3.724C57.682 20.85 59.5 26.211 59.5 32c0 15.164-12.336 27.5-27.5 27.5" fill="#000000"></path></svg>